HIERARCHY
ROOT Hips
{
	OFFSET 0.000000 0.000000 0.000000 
	CHANNELS 6 Xposition Yposition Zposition Yrotation Zrotation Xrotation 
	JOINT Lumbar
	{
		OFFSET 0.000000 0.000000 0.000000 
		CHANNELS 3 Zrotation Xrotation Yrotation
		JOINT Neck
		{
			OFFSET 0.000000 0.445665 0.000000 
			CHANNELS 3 Zrotation Xrotation Yrotation
			End Site
			{
				OFFSET 0.000000 0.227535 0.000000 
			}
		}
		JOINT RightShoulder
		{
			OFFSET 0.019635 0.377685 0.194865 
			CHANNELS 3 Zrotation Xrotation Yrotation
			JOINT RightElbow
			{
				OFFSET 0.000000 -0.243375 0.000000 
				CHANNELS 2 Zrotation Yrotation
				JOINT RightWrist
				{
					OFFSET 0.000000 -0.264825 0.000000 
					CHANNELS 2 Zrotation Xrotation
					End Site
					{
						OFFSET 0.006600 -0.176220 0.000990 
					}
				}
			}
		}
		JOINT LeftShoulder
		{
			OFFSET 0.019635 0.377685 -0.194865 
			CHANNELS 3 Zrotation Xrotation Yrotation
			JOINT LeftElbow
			{
				OFFSET 0.000000 -0.243375 0.000000 
				CHANNELS 2 Zrotation Yrotation
				JOINT LeftWrist
				{
					OFFSET 0.000000 -0.264825 0.000000 
					CHANNELS 2 Zrotation Xrotation
					End Site
					{
						OFFSET 0.006600 -0.176220 -0.000990 
					}
				}
			}
		}
	}
	JOINT RightHip
	{
		OFFSET 0.052140 -0.069960 0.075570 
		CHANNELS 3 Zrotation Xrotation Yrotation
		JOINT RightKnee
		{
			OFFSET 0.000000 -0.402270 0.000000 
			CHANNELS 1 Zrotation
			JOINT RightAnkle
			{
				OFFSET 0.000000 -0.404085 0.000000 
				CHANNELS 3 Zrotation Xrotation Yrotation
				End Site
				{
					OFFSET 0.204105 -0.089430 0.008415 
				}
			}
		}
	}
	JOINT LeftHip
	{
		OFFSET 0.052140 -0.069960 -0.075570 
		CHANNELS 3 Zrotation Xrotation Yrotation
		JOINT LeftKnee
		{
			OFFSET 0.000000 -0.402270 0.000000 
			CHANNELS 1 Zrotation
			JOINT LeftAnkle
			{
				OFFSET 0.000000 -0.404085 0.000000 
				CHANNELS 3 Zrotation Xrotation Yrotation
				End Site
				{
					OFFSET 0.204105 -0.089430 -0.008415 
				}
			}
		}
	}
}
MOTION
Frames: 30
Frame Time: 0.02
-0.00201 0.00095 0.0039 153.2812 -31.49177 -0.36989 41.45217 3.05643 -3.48966 -12.33748 -6.49711 -1.30541 -26.53278 -10.87988 -7.70976 24.95036 92.20553 8.7752 0.61317 -39.55246 14.48725 4.80296 27.47423 -140.664 28.0316 -6.90219 32.42163 0.66325 -18.46297 -19.45563 -7.02131 -2.36884 -3.39089 38.70466 9.14073 5.31238 -26.69148 -9.84854 4.05747 4.37607
-0.00263 0.00069 0.00394 153.32407 -31.41654 -0.345 41.55457 2.96598 -3.59 -12.43186 -6.2014 -1.30736 -26.44863 -11.10636 -6.67873 26.62718 91.62786 8.54751 0.44698 -38.9988 14.6002 4.37261 29.4754 -135.65924 26.40706 -6.15105 32.34807 0.6535 -18.36658 -19.5501 -7.0147 -2.38803 -3.40257 38.56529 9.22433 5.78298 -26.72501 -9.75993 4.01488 4.35103
-0.00325 0.00043 0.00399 153.36683 -31.34144 -0.32021 41.65719 2.87568 -3.69059 -12.5262 -5.90602 -1.30932 -26.36238 -11.33332 -5.64795 28.30403 91.05152 8.32032 0.28114 -38.44441 14.71306 3.94201 31.47566 -130.66884 24.78683 -5.40202 32.27456 0.64393 -18.27024 -19.64438 -7.0081 -2.40719 -3.41423 38.42622 9.3077 6.25174 -26.75853 -9.67156 3.97242 4.32607
-0.00386 0.00017 0.00404 153.40959 -31.26642 -0.2954 41.75937 2.78548 -3.79072 -12.62037 -5.6111 -1.31127 -26.27827 -11.55932 -4.61963 29.97651 90.47554 8.09331 0.11544 -37.89223 14.8257 3.51278 33.47148 -125.6793 23.1672 -4.65316 32.2012 0.63424 -18.1741 -19.73858 -7.00152 -2.42633 -3.42588 38.28725 9.39103 6.72082 -26.79194 -9.58321 3.92996 4.3011
-0.00448 -9e-05 0.00408 153.45241 -31.1913 -0.27048 41.86113 2.6952 -3.89035 -12.71439 -5.3161 -1.31323 -26.19672 -11.78432 -3.59211 31.64705 89.89845 7.86583 -0.05056 -37.34125 14.93834 3.08424 35.46631 -120.67587 21.54346 -3.90226 32.12786 0.6243 -18.07801 -19.83294 -6.99493 -2.44547 -3.43754 38.14809 9.4746 7.19191 -26.8254 -9.49462 3.88736 4.27606
-0.0051 -0.00035 0.00412 153.49503 -31.11628 -0.24594 41.96554 2.60488 -3.99291 -12.80936 -5.01997 -1.31519 -26.10038 -12.01533 -2.55456 33.33703 89.32374 7.63926 -0.21608 -36.77948 15.05167 2.6493 37.4779 -115.71319 19.93067 -3.15721 32.05399 0.61551 -17.98116 -19.92702 -6.9883 -2.4647 -3.44921 38.00924 9.55755 7.65577 -26.85909 -9.40676 3.84522 4.25127
-0.00571 -0.00061 0.00418 153.5381 -31.04112 -0.22069 42.06453 2.51468 -4.08959 -12.90254 -4.72635 -1.31714 -26.035 -12.23423 -1.53843 34.98595 88.74476 7.41122 -0.38234 -36.24123 15.16345 2.22805 39.45328 -110.67408 18.29787 -2.40127 31.98127 0.60443 -17.8859 -20.02158 -6.98176 -2.48374 -3.46085 37.86982 9.64161 8.13359 -26.89206 -9.3175 3.8022 4.226
-0.00633 -0.00087 0.00422 153.58057 -30.96611 -0.19605 42.16848 2.42448 -4.19145 -12.99695 -4.43059 -1.3191 -25.93905 -12.46386 -0.50235 36.67288 88.16991 7.18434 -0.548 -35.67914 15.27673 1.79358 41.46256 -105.70527 16.68307 -1.65525 31.90748 0.59543 -17.78929 -20.11568 -6.97513 -2.50293 -3.47251 37.73108 9.72473 8.59866 -26.92609 -9.22957 3.75998 4.20117
-0.00696 -0.00113 0.00423 153.62308 -30.89116 -0.17234 42.2788 2.3338 -4.30077 -13.09464 -4.13129 -1.32106 -25.81329 -12.70864 0.55828 38.40733 87.59903 6.95949 -0.71266 -35.09575 15.39164 1.34485 43.51303 -100.82082 15.09125 -0.92148 31.83237 0.58912 -17.69048 -20.20932 -6.96843 -2.5224 -3.48425 37.59247 9.80643 9.04777 -26.95989 -9.14305 3.71876 4.17688
-0.00753 -0.00138 0.0044 153.66767 -30.8155 -0.14382 42.3534 2.24441 -4.37058 -13.17881 -3.84955 -1.32298 -25.88174 -12.87239 1.47822 39.87171 87.00206 6.72479 -0.88229 -34.65842 15.49658 0.98384 45.32594 -95.44609 13.3701 -0.1176 31.76482 0.56779 -17.60265 -20.30593 -6.96227 -2.54058 -3.49569 37.45098 9.89546 9.58757 -26.99044 -9.04779 3.67186 4.14946
-0.00822 -0.00165 0.00423 153.70639 -30.74156 -0.12512 42.50267 2.15326 -4.52148 -13.28806 -3.53264 -1.325 -25.52621 -13.20303 2.69423 41.90306 86.4623 6.50975 -1.04191 -33.89821 15.62287 0.43431 47.63966 -91.10939 11.92015 0.53853 31.68134 0.57784 -17.49276 -20.39607 -6.95488 -2.56124 -3.50764 37.31698 9.96955 9.93678 -27.03074 -8.97136 3.6369 4.12866
-0.00925 -0.00191 0.00312 153.74054 -30.66984 -0.13606 42.86402 2.04952 -4.91467 -13.49564 -3.1027 -1.32727 -24.11054 -14.02932 4.73783 45.52969 86.07112 6.35143 -1.17186 -32.36004 15.80465 -0.61078 51.34239 -89.62824 11.22731 0.78602 31.55226 0.67723 -17.31299 -20.4695 -6.94465 -2.59076 -3.52221 37.19201 9.99831 9.75214 -27.07575 -8.94442 3.63524 4.12608
-0.01038 -0.00218 0.00166 153.76637 -30.5998 -0.15629 43.29847 1.9457 -5.38482 -13.72322 -2.64054 -1.32967 -22.24932 -15.01565 7.07551 49.71727 85.74457 6.20772 -1.29341 -30.47567 16.00758 -1.84963 55.54198 -89.19524 10.79915 0.88705 31.40668 0.80736 -17.1131 -20.53588 -6.93307 -2.6223 -3.53705 37.07663 10.01303 9.37843 -27.13561 -8.93708 3.64546 4.13012
-0.01145 -0.00246 0.00034 153.78884 -30.53129 -0.17061 43.69551 1.84663 -5.80782 -13.92203 -2.2039 -1.33197 -20.52532 -15.9049 9.26933 53.62388 85.38672 6.06138 -1.41872 -28.68151 16.20391 -3.01355 59.50888 -88.26876 10.2481 1.05552 31.27093 0.92152 -16.92811 -20.60529 -6.92172 -2.6517 -3.55104 36.96444 10.03683 9.09793 -27.20181 -8.92184 3.64993 4.13107
-0.01261 -0.0027 -0.00092 153.84262 -30.45525 -0.19234 44.1127 1.72658 -6.28563 -14.20281 -1.72118 -1.33433 -19.07856 -16.89965 11.50873 57.64621 85.01392 5.91706 -1.53924 -27.17779 16.39107 -4.12085 63.51966 -87.38724 9.73012 1.21456 31.12874 1.04488 -16.71751 -20.67696 -6.91196 -2.68662 -3.56824 36.82066 10.0486 8.78504 -27.20875 -8.90124 3.65596 4.13237
-0.0136 -0.00301 -0.00238 153.82775 -30.39261 -0.20048 44.50236 1.65157 -6.66344 -14.31904 -1.32694 -1.33676 -16.94548 -17.70963 13.72055 61.55465 84.71669 5.74827 -1.67402 -24.97735 16.59796 -5.39401 67.53954 -86.69753 9.17899 1.3653 30.99176 1.15551 -16.55707 -20.74032 -6.8986 -2.71006 -3.57863 36.74462 10.08288 8.49639 -27.34768 -8.89787 3.66146 4.13452
-0.01411 -0.0035 -0.00431 153.63835 -30.3901 -0.17137 44.82297 1.68904 -6.78167 -13.96317 -1.18449 -1.33792 -13.05559 -17.99358 15.80189 65.05562 84.35645 5.71683 -1.79438 -21.02436 16.89141 -7.05747 71.6084 -85.95206 8.70889 1.4691 30.91093 1.23052 -16.52461 -20.79928 -6.87548 -2.70561 -3.57187 36.85774 10.17532 8.30727 -27.80522 -8.92479 3.66344 4.13717
-0.01446 -0.00405 -0.00641 153.378 -30.39706 -0.12751 45.10901 1.7738 -6.79061 -13.44321 -1.13264 -1.33939 -8.48562 -18.08087 17.84095 68.41181 84.11309 5.6252 -1.93821 -16.36823 17.197 -8.88304 75.64156 -85.4184 8.15694 1.57909 30.82957 1.29022 -16.5448 -20.84726 -6.84887 -2.68889 -3.55799 37.03891 10.29183 8.15127 -28.40352 -8.97054 3.66432 4.14047
-0.01488 -0.00457 -0.00843 153.14129 -30.38369 -0.08902 45.39414 1.84505 -6.82556 -13.00698 -1.03918 -1.34171 -4.20718 -18.2438 19.88896 71.80809 83.98997 5.41947 -2.10994 -11.97459 17.47263 -10.64998 79.59597 -85.01091 7.48033 1.72774 30.72283 1.35242 -16.55283 -20.88886 -6.82391 -2.67471 -3.54612 37.1847 10.40273 7.98965 -28.96436 -9.01606 3.66514 4.14361
-0.01529 -0.00513 -0.01051 152.93954 -30.43624 -0.05749 45.75065 1.88368 -6.96048 -12.53346 -0.94505 -1.34 0.01515 -18.47349 21.9946 75.34221 83.15654 5.7955 -2.12511 -7.80096 17.85227 -12.36778 83.97021 -83.72612 7.47556 1.70329 30.72082 1.43492 -16.51632 -20.97701 -6.79843 -2.67269 -3.53911 37.34538 10.49245 7.78328 -29.41151 -9.02775 3.66871 4.14645
-0.01569 -0.0056 -0.01248 152.6496 -30.35598 -0.00655 45.95102 2.00013 -6.86348 -12.09753 -0.87599 -1.34657 4.5071 -18.51133 23.96127 78.53536 83.80526 4.9653 -2.46382 -3.01764 18.0178 -14.21436 87.45315 -84.27369 6.07458 2.03385 30.50432 1.47059 -16.57802 -20.96721 -6.77346 -2.6433 -3.5207 37.49643 10.62993 7.67837 -30.13156 -9.11329 3.66616 4.14995
-0.01601 -0.00579 -0.01407 152.12171 -29.88758 0.08325 45.71394 2.33159 -6.12443 -11.81305 -0.83885 -1.37756 9.59725 -18.10185 25.59532 80.92344 88.72662 0.64713 -3.7617 3.36787 17.59038 -16.45783 88.49632 -90.09811 0.61261 3.4213 29.66524 1.38482 -16.96262 -20.6764 -6.74862 -2.53356 -3.46899 37.5584 10.91321 7.8651 -31.54445 -9.40452 3.64656 4.15521
-0.01634 -0.00589 -0.01554 151.50987 -29.28898 0.19407 45.32349 2.73752 -5.16089 -11.57074 -0.82655 -1.41657 14.92681 -17.49959 27.08125 82.95173 95.0962 -4.85053 -5.37143 10.32188 16.94734 -18.80917 88.63869 -97.70487 -6.21094 5.15247 28.61613 1.25146 -17.43337 -20.28979 -6.72477 -2.39803 -3.40666 37.6167 11.24034 8.15067 -33.23044 -9.7677 3.62072 4.16096
-0.0167 -0.00601 -0.01706 150.94405 -28.76223 0.3028 45.01231 3.10167 -4.31803 -11.30388 -0.81333 -1.45083 20.13445 -16.96138 28.60753 85.07557 100.66581 -9.696 -6.79111 16.95716 16.40135 -21.05708 89.18286 -104.3126 -12.26446 6.67513 27.68315 1.13713 -17.82105 -19.95585 -6.70191 -2.27952 -3.35158 37.70689 11.53422 8.37835 -34.8105 -10.09422 3.59808 4.16648
-0.01687 -0.00619 -0.01859 150.34199 -28.18134 0.3811 44.65878 3.50102 -3.39161 -11.05332 -0.76054 -1.48976 25.43161 -16.51295 30.24885 87.48141 106.83868 -15.03545 -8.41417 23.8809 15.85731 -23.54062 89.75876 -111.72202 -18.95899 8.41662 26.66264 1.03355 -18.39149 -19.58336 -6.673 -2.13863 -3.28623 37.67248 11.88426 8.65941 -36.32495 -10.43991 3.57436 4.17242
-0.01747 -0.00624 -0.02008 149.7971 -27.68337 0.52688 44.35848 3.84407 -2.58861 -10.78186 -0.79353 -1.52088 30.57759 -15.83799 31.61278 89.21656 112.09691 -19.62349 -9.68923 30.31855 15.26093 -25.55669 90.0542 -117.88761 -24.64101 9.78651 25.77483 0.89612 -18.60668 -19.26809 -6.6568 -2.03785 -3.2396 37.89506 12.12855 8.8554 -38.03126 -10.76029 3.55084 4.17717
-0.0192 -0.00592 -0.02147 149.4246 -27.43588 0.85977 44.23369 4.01383 -2.17096 -10.43564 -1.06864 -1.52813 35.35034 -14.55376 32.27338 89.18436 114.47771 -21.86298 -9.91054 35.36337 14.5465 -26.25504 89.80228 -120.12196 -27.18518 10.02207 25.30255 0.68001 -17.77034 -19.1382 -6.67689 -2.05888 -3.24926 38.83459 12.05946 8.76454 -40.26393 -11.01273 3.53472 4.18223
-0.02139 -0.00547 -0.02282 149.11383 -27.27819 1.25852 44.16936 4.12412 -1.88772 -10.06915 -1.42658 -1.52728 39.939 -13.05536 32.65538 88.49116 115.88652 -23.30234 -9.77365 39.87786 13.79207 -26.4783 89.29853 -121.04674 -28.6609 9.87528 24.97145 0.43111 -16.58195 -19.0685 -6.70947 -2.12041 -3.2778 40.0311 11.8837 8.58852 -42.66563 -11.23384 3.51822 4.1855
-0.02341 -0.00509 -0.02421 148.77934 -27.0861 1.62337 44.08373 4.26106 -1.55034 -9.71697 -1.73877 -1.53035 44.54232 -11.67572 33.14751 88.10318 117.73862 -25.09806 -9.81166 44.57527 13.07259 -26.91875 88.90521 -122.61766 -30.63594 9.92058 24.57729 0.19506 -15.58756 -18.9687 -6.73539 -2.16029 -3.29635 41.10569 11.76438 8.47099 -44.9503 -11.45594 3.49819 4.18702
-0.02524 -0.00467 -0.02553 148.42432 -26.86243 2.00638 43.96765 4.40197 -1.17587 -9.34402 -2.08635 -1.53273 49.44989 -10.19706 33.70319 87.6812 119.63655 -26.96613 -9.81015 49.54397 12.27314 -27.35833 88.49546 -124.06185 -32.61583 9.90453 24.17133 -0.03457 -14.45478 -18.87718 -6.76552 -2.21269 -3.32037 42.20282 11.61539 8.27812 -47.42292 -11.73506 3.49283 4.1989
